<svg width="610" height="405" viewBox="0 0 610 405" fill="none" xmlns="http://www.w3.org/2000/svg">
<g clipPath="url(#clip0_26_25530)">
<path d="M308.98 113.831C303.541 104.837 297.097 95.2333 287.005 92.2963C275.318 88.8951 263.312 95.6517 253.128 102.319C222.673 122.259 193.344 143.868 165.275 167.048L165.306 167.397C187.158 165.89 209.011 164.383 230.863 162.876C246.651 161.787 262.982 160.548 276.934 153.079C282.229 150.245 287.39 146.459 293.389 146.196C300.843 145.868 307.343 151.074 312.45 156.512C342.663 188.685 351.406 237.884 385.302 266.15C363.928 213.439 338.407 162.507 308.98 113.831Z" fill="#F2F2F2"/>
<path d="M494.693 386.713C491.352 382.494 489.987 381.506 486.691 377.248C459.857 342.542 434.635 306.663 411.025 269.612C394.988 244.449 379.746 218.802 365.3 192.672C358.423 180.25 351.733 167.73 345.233 155.112C340.189 145.329 335.257 135.487 330.438 125.587C329.06 122.759 327.721 119.918 326.388 117.071C323.248 110.376 320.167 103.648 316.858 97.043C313.088 89.5154 308.499 81.6237 301.575 76.5663C298.425 74.1703 294.657 72.7205 290.713 72.3865C285.077 72.0225 279.877 74.3497 274.988 76.8914C239.222 95.5413 205.738 118.924 175.452 145.53C145.089 172.197 117.949 202.323 94.5856 235.296C93.8708 236.317 92.1806 235.342 92.9021 234.315C95.7429 230.297 98.64 226.323 101.593 222.393C138.317 173.552 183.345 131.551 234.62 98.3106C243.246 92.7201 252.035 87.3919 260.986 82.3258C265.497 79.7711 270.028 77.2489 274.637 74.8827C279.155 72.562 283.952 70.4753 289.114 70.3973C306.678 70.1243 315.773 90.0159 322.02 103.4C323.983 107.613 325.97 111.812 327.981 115.999C335.58 131.892 343.471 147.641 351.655 163.244C356.706 172.878 361.868 182.456 367.14 191.977C383.547 221.626 400.986 250.674 419.456 279.123C443.924 316.806 468.197 350.095 496.071 385.335C496.838 386.31 495.467 387.701 494.693 386.713Z" fill="#E4E4E4"/>
<path d="M173.717 135.707C172.696 134.57 171.682 133.432 170.655 132.295C162.555 123.337 153.864 114.483 142.742 109.348C137.438 106.822 131.649 105.48 125.775 105.415C119.704 105.434 113.769 107.027 108.159 109.257C105.507 110.316 102.913 111.519 100.358 112.799C97.4396 114.269 94.5728 115.835 91.7193 117.415C86.3627 120.379 81.0756 123.473 75.858 126.698C65.4766 133.114 55.4202 140.019 45.689 147.415C40.6444 151.25 35.7039 155.211 30.8676 159.298C26.3693 163.094 21.962 166.992 17.6456 170.992C16.7226 171.844 15.3444 170.466 16.2674 169.614C17.405 168.555 18.5556 167.501 19.7062 166.461C22.9565 163.523 26.2588 160.641 29.6132 157.816C35.73 152.654 42.0051 147.692 48.4387 142.929C58.4431 135.519 68.7919 128.611 79.4851 122.206C84.8286 119.008 90.2457 115.944 95.7364 113.014C97.3942 112.13 99.0714 111.265 100.768 110.446C104.618 108.505 108.617 106.876 112.729 105.577C118.553 103.693 124.715 103.088 130.794 103.803C136.663 104.657 142.319 106.613 147.461 109.569C158.382 115.673 166.852 125.111 175.095 134.323C175.927 135.259 174.555 136.643 173.717 135.707Z" fill="#E4E4E4"/>
<path d="M397.48 228.533L423.649 218.962L436.642 214.21C440.874 212.662 445.095 210.9 449.469 209.792C453.271 208.706 457.307 208.757 461.08 209.94C464.444 211.185 467.524 213.094 470.136 215.553C472.804 218.01 475.287 220.662 477.564 223.486C480.392 226.885 483.179 230.32 485.979 233.744C497.533 247.875 509.012 262.066 520.415 276.319C531.818 290.572 543.144 304.886 554.395 319.259C565.673 333.669 576.873 348.138 587.996 362.667C589.358 364.447 590.72 366.228 592.08 368.01C592.831 368.994 594.526 368.024 593.764 367.026C582.559 352.35 571.276 337.734 559.915 323.179C548.526 308.588 537.058 294.06 525.512 279.593C513.966 265.127 502.342 250.724 490.64 236.383C487.724 232.81 484.804 229.241 481.879 225.676C479.412 222.669 476.972 219.63 474.266 216.831C469.299 211.693 463.092 207.153 455.663 207.03C451.295 206.958 447.068 208.344 443.01 209.812C438.635 211.394 434.271 213.007 429.902 214.605L403.55 224.243L396.962 226.653C395.792 227.08 396.297 228.966 397.48 228.533Z" fill="#E4E4E4"/>
<path d="M139.298 120.614C125.999 113.78 108.969 115.118 96.7483 123.657C120.058 127.679 143.112 133.059 165.794 139.772C156.375 134.252 149.007 125.605 139.298 120.614Z" fill="#F2F2F2"/>
<path d="M96.6175 123.641L94.0574 125.722C94.9233 124.993 95.8236 124.31 96.7484 123.664C96.7047 123.657 96.6612 123.648 96.6175 123.641Z" fill="#F2F2F2"/>
<path d="M469.15 228.626C466.574 225.49 463.789 222.207 459.936 220.934L456.339 221.075C483.723 269.464 520.707 311.745 565.02 345.324C533.064 306.425 501.107 267.525 469.15 228.626Z" fill="#F2F2F2"/>
<path d="M245.455 202.762C247.12 208.81 250.87 214.074 256.043 217.623C258.042 218.985 260.408 220.291 261.092 222.612C261.452 224.091 261.231 225.652 260.473 226.973C259.717 228.276 258.796 229.478 257.735 230.547L257.638 230.911C252.675 227.97 247.954 224.25 245.213 219.174C242.472 214.099 242.089 207.446 245.455 202.762Z" fill="#F2F2F2"/>
<path d="M410.675 346.707C412.34 352.755 416.09 358.02 421.262 361.569C423.262 362.93 425.628 364.236 426.312 366.557C426.672 368.036 426.45 369.597 425.693 370.918C424.937 372.222 424.016 373.423 422.955 374.493L422.858 374.856C417.895 371.915 413.174 368.195 410.433 363.119C407.692 358.044 407.309 351.392 410.675 346.707Z" fill="#F2F2F2"/>
<path d="M80.9439 336.781C82.6086 342.829 86.359 348.094 91.5315 351.643C93.5313 353.005 95.8973 354.311 96.5814 356.631C96.9413 358.111 96.7195 359.672 95.9619 360.992C95.2057 362.296 94.2855 363.497 93.2239 364.567L93.127 364.93C88.1644 361.989 83.4433 358.269 80.702 353.194C77.9607 348.118 77.578 341.466 80.9439 336.781Z" fill="#F2F2F2"/>
<path d="M460.382 72.328C480.355 72.328 496.546 56.1368 496.546 36.164C496.546 16.1912 480.355 0 460.382 0C440.409 0 424.218 16.1912 424.218 36.164C424.218 56.1368 440.409 72.328 460.382 72.328Z" fill="#EA6535"/>
<path d="M525.644 8.41838C508.118 6.04933 488.108 15.5226 483.565 32.6153C482.421 29.5762 480.339 26.9798 477.622 25.201C474.905 23.4223 471.693 22.5533 468.45 22.7198C465.206 22.8862 462.1 24.0793 459.579 26.1269C457.058 28.1744 455.254 30.9703 454.426 34.1106L456.433 35.5477C493.992 43.6699 532.871 43.4941 570.355 35.0326C558.164 22.22 543.171 10.7874 525.644 8.41838Z" fill="#F0F0F0"/>
<path d="M450.48 56.6371C432.953 54.2681 412.944 63.7414 408.401 80.8341C407.256 77.795 405.175 75.1985 402.458 73.4198C399.741 71.641 396.529 70.7721 393.285 70.9385C390.042 71.1049 386.936 72.2981 384.415 74.3456C381.894 76.3932 380.089 79.189 379.262 82.3293L381.268 83.7665C418.827 91.8887 457.707 91.7129 495.191 83.2514C483 70.4387 468.007 59.0061 450.48 56.6371Z" fill="#F0F0F0"/>
<path d="M603.451 65.7563C603.378 65.7565 603.306 65.7452 603.237 65.7231C415.747 6.42959 250.5 14.1833 144.89 31.1289C130.518 33.4342 116.107 36.0967 102.058 39.0432C98.4713 39.7946 94.7503 40.5999 90.9984 41.4385C86.5177 42.4364 82.0966 43.464 77.8573 44.4917C76.0264 44.9252 74.2312 45.3621 72.4719 45.8025C69.8068 46.4604 67.1027 47.1459 64.204 47.8993C60.9649 48.7345 57.6739 49.6105 54.4203 50.5031C54.4084 50.5073 54.3963 50.5107 54.384 50.5134L54.3843 50.5141C50.7093 51.5175 47.0537 52.55 43.5186 53.5812C41.6053 54.1337 39.7578 54.6787 37.9881 55.2168C37.7904 55.2715 37.6152 55.3241 37.4376 55.3781L37.0574 55.4938C36.8372 55.5609 36.6198 55.6267 36.4024 55.689L36.3885 55.6932L36.3889 55.6939L35.8134 55.8726C35.1272 56.0804 34.4575 56.2832 33.799 56.4854C16.3942 61.8508 6.82625 65.6677 6.73172 65.7051C6.64529 65.7398 6.55288 65.757 6.45976 65.756C6.36665 65.7549 6.27466 65.7355 6.18904 65.6989C6.10342 65.6623 6.02585 65.6091 5.96076 65.5425C5.89567 65.4759 5.84434 65.3972 5.80969 65.3107C5.77504 65.2243 5.75777 65.1319 5.75884 65.0388C5.7599 64.9457 5.7793 64.8537 5.81592 64.7681C5.85254 64.6824 5.90566 64.6049 5.97226 64.5398C6.03886 64.4747 6.11762 64.4234 6.20406 64.3887C6.29927 64.3513 15.914 60.515 33.3821 55.1296C34.0431 54.9267 34.7145 54.7238 35.4028 54.5153L35.9374 54.3492C35.9557 54.3422 35.9741 54.3367 35.9928 54.3311C36.2092 54.2695 36.4252 54.2037 36.6447 54.1373L37.0256 54.0216C37.2153 53.9641 37.4023 53.9073 37.5938 53.8547C39.3513 53.3201 41.2051 52.7738 43.1232 52.2191C46.6597 51.1873 50.3188 50.1548 53.9965 49.15C54.0079 49.1459 54.0197 49.1431 54.0311 49.1396C57.2962 48.2443 60.5993 47.3641 63.8488 46.5262C66.752 45.7721 69.4613 45.0852 72.1308 44.4259C73.8977 43.9862 75.6963 43.5483 77.5266 43.1123C81.7708 42.0833 86.2009 41.0542 90.6896 40.0543C94.4473 39.215 98.1746 38.4076 101.767 37.6556C115.838 34.7042 130.271 32.0375 144.666 29.7288C250.427 12.7589 415.91 4.99268 603.664 64.3713C603.826 64.4223 603.964 64.5294 604.053 64.6731C604.142 64.8169 604.177 64.9879 604.152 65.1553C604.126 65.3226 604.041 65.4752 603.913 65.5854C603.784 65.6957 603.62 65.7563 603.451 65.7563Z" fill="#CCCCCC"/>
<path d="M186.485 297.709C186.24 296.992 185.827 296.342 185.28 295.816C185.078 295.629 184.86 295.461 184.628 295.313C182.777 294.079 180.011 293.802 178.253 295.313C178.076 295.466 177.912 295.635 177.764 295.816C177.239 296.461 176.7 297.093 176.147 297.709C175.239 298.745 174.31 299.745 173.339 300.716C173.062 300.986 172.786 301.262 172.502 301.532C172.339 301.695 172.176 301.851 172.013 302.007C171.389 302.602 170.751 303.177 170.105 303.744C169.765 304.049 169.425 304.347 169.077 304.637C168.559 305.07 168.042 305.502 167.517 305.921C167.467 305.956 167.418 305.992 167.368 306.034C167.354 306.041 167.347 306.056 167.333 306.063C167.326 306.063 167.319 306.063 167.311 306.077C167.292 306.084 167.275 306.097 167.262 306.112C167.106 306.219 166.999 306.29 166.921 306.353C166.95 306.339 166.978 306.318 167.007 306.304C166.879 306.403 166.744 306.502 166.617 306.602C165.376 307.516 164.106 308.396 162.809 309.218C159.598 311.273 156.226 313.063 152.725 314.572C152.491 314.664 152.25 314.763 152.009 314.855C142.844 318.61 132.901 320.076 123.042 319.124C122.035 319.046 121.029 318.94 120.022 318.805C118.859 318.635 117.703 318.429 116.554 318.195C112.181 317.323 107.902 316.031 103.776 314.338C98.6155 311.975 93.7072 309.095 89.1263 305.744C88.4172 305.24 87.701 304.737 86.9848 304.247C87.8003 302.248 88.6016 300.248 89.3816 298.234C89.7716 297.263 90.1474 296.291 90.5161 295.313C93.4163 287.775 96.1393 280.166 98.7487 272.529C101.387 264.793 103.876 257.012 106.216 249.186C106.457 248.392 106.691 247.598 106.918 246.803C108.144 242.669 109.321 238.526 110.449 234.373C110.555 233.969 110.669 233.572 110.768 233.167C111.094 231.976 111.413 230.785 111.725 229.594C112.434 226.906 110.832 223.694 108.01 223.049C106.651 222.7 105.21 222.893 103.99 223.586C102.771 224.279 101.868 225.418 101.472 226.764C101.167 227.913 100.862 229.055 100.55 230.203C99.0537 235.756 97.4795 241.289 95.8273 246.803C95.5862 247.598 95.3451 248.392 95.104 249.186C91.4592 261.198 87.4575 273.09 83.0989 284.861C82.5742 286.286 82.0424 287.706 81.5035 289.122C81.2411 289.817 80.9787 290.512 80.7093 291.207C80.1916 292.576 79.6598 293.944 79.128 295.313C78.8231 296.114 78.5111 296.915 78.1991 297.709C77.9935 298.213 77.7949 298.716 77.5964 299.213C75.5746 298.487 73.4799 297.983 71.3492 297.709L71.0088 297.667C69.3569 297.468 67.6863 297.482 66.038 297.709C63.5711 297.997 61.1976 298.824 59.0851 300.13C56.9727 301.436 55.173 303.19 53.8132 305.268C50.4308 310.594 50.4733 318.21 55.2172 322.734C60.1029 327.392 67.4988 327.357 73.2496 324.442C76.2971 322.794 78.8668 320.385 80.7093 317.451C81.4152 316.387 82.0637 315.286 82.6522 314.153C82.8011 314.253 82.95 314.352 83.0989 314.458C83.6662 314.855 84.2335 315.26 84.7937 315.657C88.0577 318.021 91.4973 320.134 95.0827 321.975C102.792 325.807 111.091 328.317 119.632 329.399C119.823 329.42 120.008 329.449 120.199 329.47C121.142 329.591 122.092 329.683 123.042 329.761C136.673 330.788 150.32 327.999 162.454 321.705C163.482 321.174 164.501 320.616 165.51 320.032C167.077 319.124 168.609 318.16 170.105 317.139C170.921 316.586 171.715 316.025 172.502 315.437C175.942 312.904 179.148 310.068 182.082 306.963C183.195 305.793 184.261 304.585 185.28 303.34C186.243 302.321 186.799 300.983 186.84 299.581C186.834 298.941 186.714 298.307 186.485 297.709ZM69.0659 314.6C69.2148 314.494 69.3637 314.38 69.5055 314.267C69.463 314.373 69.2573 314.494 69.0659 314.6ZM71.3421 312.31C71.179 312.494 71.0301 312.679 70.867 312.863C70.3708 313.418 69.8378 313.939 69.2715 314.423C69.1935 314.494 69.1085 314.565 69.0234 314.629C69.0224 314.629 69.0215 314.629 69.0206 314.629C69.0197 314.629 69.019 314.63 69.0183 314.631C69.0176 314.631 69.0171 314.632 69.0168 314.633C69.0164 314.634 69.0162 314.635 69.0163 314.636C68.9138 314.681 68.8144 314.734 68.7184 314.792C68.4135 314.976 68.1015 315.146 67.7824 315.302C67.1577 315.532 66.5149 315.71 65.8608 315.834C65.3581 315.871 64.8537 315.875 64.3504 315.848H64.3362C63.9889 315.771 63.6457 315.676 63.308 315.565C63.1379 315.479 62.9748 315.38 62.8117 315.281C62.7478 315.224 62.6911 315.167 62.6557 315.132C62.5864 315.069 62.5224 315 62.4642 314.926C62.4643 314.925 62.4641 314.924 62.4637 314.924C62.4634 314.923 62.4629 314.922 62.4622 314.921C62.4616 314.921 62.4607 314.92 62.4599 314.92C62.459 314.919 62.4581 314.919 62.4572 314.919C62.3791 314.777 62.294 314.636 62.2161 314.494C62.212 314.49 62.2095 314.485 62.209 314.48C62.1522 314.302 62.1026 314.118 62.0601 313.934C62.0447 313.61 62.047 313.286 62.0671 312.962C62.1623 312.509 62.2903 312.064 62.4501 311.629C62.5936 311.321 62.7571 311.023 62.9393 310.736C62.9535 310.707 63.0244 310.594 63.1024 310.466C63.1095 310.459 63.1095 310.459 63.1095 310.452C63.2159 310.331 63.3223 310.204 63.4357 310.09C63.6272 309.878 63.8328 309.693 64.0384 309.502C64.4384 309.24 64.8527 309.001 65.2794 308.786C65.9563 308.545 66.651 308.358 67.357 308.225C68.3982 308.143 69.4446 308.152 70.4841 308.254C71.4687 308.425 72.4402 308.664 73.3914 308.97C72.8149 310.089 72.1585 311.165 71.4272 312.189C71.3988 312.232 71.3705 312.274 71.3421 312.31ZM63.4569 309.977C63.3945 310.077 63.3207 310.17 63.2371 310.253C63.2934 310.149 63.3678 310.055 63.4569 309.977Z" fill="#3F3D56"/>
<path d="M165.17 225.287C165.106 227.514 165.042 229.74 164.979 231.967C164.844 236.909 164.704 241.854 164.56 246.801C164.411 252.367 164.255 257.932 164.092 263.493C164.014 266.365 163.934 269.237 163.851 272.109C163.631 279.845 163.414 287.579 163.199 295.31C163.178 296.112 163.149 296.906 163.128 297.707C163.022 301.543 162.915 305.38 162.809 309.216C162.688 313.378 162.57 317.541 162.454 321.703C162.369 324.823 162.282 327.945 162.192 331.07C161.554 353.712 160.916 376.353 160.277 398.995C160.25 400.397 159.681 401.734 158.69 402.726C157.698 403.717 156.361 404.286 154.959 404.313C153.552 404.302 152.206 403.738 151.211 402.743C150.216 401.748 149.652 400.402 149.641 398.995C149.995 386.259 150.355 373.524 150.719 360.789C151.038 349.273 151.362 337.757 151.69 326.241C151.797 322.448 151.903 318.652 152.009 314.853C152.172 309.138 152.333 303.423 152.491 297.707C152.513 296.906 152.541 296.112 152.562 295.31C152.577 294.608 152.598 293.914 152.619 293.212C152.931 282.114 153.243 271.014 153.555 259.912C153.683 255.544 153.806 251.174 153.924 246.801C154.066 241.816 154.207 236.833 154.349 231.853C154.413 229.662 154.47 227.478 154.534 225.287C154.561 223.885 155.13 222.548 156.121 221.556C157.113 220.565 158.45 219.996 159.852 219.969C161.259 219.98 162.605 220.544 163.6 221.539C164.595 222.534 165.159 223.88 165.17 225.287Z" fill="#3F3D56"/>
<path d="M456.913 226.764C451.336 247.881 444.671 268.695 436.944 289.123C434.812 294.758 432.63 300.382 430.299 305.937L430.835 304.667C429.794 307.313 428.465 309.837 426.871 312.192C426.763 312.343 426.653 312.494 426.54 312.643C427.091 311.938 427.196 311.799 426.854 312.225C426.674 312.438 426.496 312.652 426.31 312.86C425.814 313.416 425.281 313.938 424.715 314.422C424.573 314.544 424.428 314.664 424.281 314.78L424.946 314.263C424.869 314.445 424.328 314.687 424.159 314.79C423.612 315.12 423.043 315.408 422.454 315.654L423.724 315.118C422.759 315.507 421.752 315.783 420.724 315.941L422.137 315.751C421.127 315.891 420.103 315.902 419.09 315.784L420.504 315.974C419.675 315.859 418.863 315.641 418.089 315.323L419.36 315.859C418.947 315.679 418.549 315.467 418.169 315.224C417.977 315.099 417.385 314.651 418.159 315.241C418.962 315.855 418.262 315.294 418.097 315.131C417.959 314.995 417.834 314.847 417.7 314.709C417.074 314.068 418.406 315.813 417.981 315.063C417.754 314.687 417.546 314.299 417.358 313.902L417.894 315.172C417.65 314.568 417.477 313.937 417.378 313.292L417.568 314.706C417.467 313.904 417.466 313.093 417.566 312.292L417.376 313.705C417.506 312.811 417.743 311.934 418.081 311.096L417.545 312.366C417.781 311.802 418.061 311.257 418.381 310.736C418.528 310.467 418.701 310.213 418.897 309.977C418.932 309.988 417.998 311.049 418.493 310.513C418.623 310.373 418.744 310.226 418.876 310.087C419.086 309.864 419.311 309.661 419.532 309.45C420.273 308.745 418.495 310.135 419.35 309.577C419.97 309.17 420.622 308.814 421.3 308.514L420.029 309.05C421.165 308.584 422.355 308.264 423.571 308.1L422.157 308.29C423.681 308.115 425.22 308.133 426.739 308.344L425.325 308.154C427.248 308.446 429.128 308.974 430.921 309.728L429.65 309.192C433.472 310.833 436.857 313.269 440.236 315.658C443.499 318.021 446.938 320.132 450.522 321.973C458.232 325.807 466.531 328.317 475.073 329.4C487.323 330.901 499.754 329.301 511.224 324.748C522.695 320.194 532.839 312.833 540.725 303.339C541.687 302.319 542.241 300.981 542.283 299.579C542.273 298.17 541.714 296.821 540.725 295.818C538.774 294.027 535.088 293.521 533.204 295.818C531.418 297.998 529.498 300.065 527.455 302.006C526.502 302.911 525.523 303.788 524.518 304.637C523.944 305.122 523.363 305.597 522.773 306.063C522.494 306.284 521.625 306.87 522.96 305.923C522.654 306.14 522.361 306.377 522.059 306.6C517.593 309.892 512.753 312.645 507.641 314.801L508.912 314.265C503.426 316.566 497.665 318.144 491.772 318.961L493.186 318.771C487.124 319.568 480.983 319.559 474.924 318.744L476.338 318.934C470.28 318.102 464.355 316.488 458.712 314.133L459.982 314.669C454.536 312.26 449.368 309.266 444.569 305.741C442.071 303.891 439.437 302.233 436.689 300.781C433.487 299.146 430.021 298.092 426.451 297.669C419.758 296.882 412.937 299.489 409.258 305.271C405.871 310.593 405.915 318.208 410.657 322.733C415.541 327.393 422.938 327.354 428.694 324.439C434.237 321.631 437.567 315.798 439.908 310.298C445.177 297.92 449.843 285.257 454.189 272.529C458.489 259.937 462.389 247.217 465.888 234.37C466.322 232.779 466.749 231.186 467.17 229.592C467.879 226.905 466.275 223.692 463.455 223.05C462.096 222.7 460.654 222.892 459.433 223.585C458.213 224.278 457.309 225.418 456.913 226.764Z" fill="#3F3D56"/>
<path d="M509.977 225.287L508.062 293.214L506.158 360.787L505.081 398.995C505.093 400.402 505.657 401.748 506.652 402.743C507.647 403.738 508.993 404.302 510.4 404.314C511.802 404.287 513.139 403.718 514.13 402.726C515.122 401.734 515.691 400.397 515.718 398.995L517.632 331.069L519.536 263.496L520.613 225.287C520.601 223.88 520.037 222.534 519.042 221.54C518.047 220.545 516.702 219.981 515.295 219.969C513.893 219.996 512.556 220.565 511.564 221.556C510.573 222.548 510.004 223.885 509.977 225.287Z" fill="#3F3D56"/>
<path opacity="0.2" d="M325.896 380.031H327.547V304.837H366.072V303.19H327.547V271.462H357.298C356.862 270.907 356.413 270.359 355.952 269.819H327.547V248.863C327.001 248.63 326.451 248.406 325.896 248.194V269.819H293.524V242.969C292.97 242.994 292.423 243.032 291.873 243.079V269.819H266.047V249.786C265.493 250.032 264.946 250.29 264.404 250.561V269.819H242.695V271.462H264.404V303.19H242.695V304.837H264.404V380.031H266.047V304.837C269.439 304.836 272.798 305.504 275.931 306.802C279.065 308.099 281.912 310.001 284.31 312.4C286.708 314.798 288.611 317.645 289.908 320.779C291.206 323.912 291.873 327.271 291.873 330.663V380.031H293.524V304.837H325.896V380.031ZM266.047 303.19V271.462H291.873V303.19H266.047ZM293.524 303.19V271.462H294.172C298.338 271.462 302.464 272.283 306.313 273.878C310.162 275.472 313.659 277.809 316.605 280.756C319.551 283.702 321.888 287.2 323.482 291.049C325.076 294.898 325.896 299.024 325.896 303.19H293.524Z" fill="black"/>
<path d="M315.811 357.489C313.732 366.764 308.752 375.134 301.593 381.386C301.069 381.84 300.544 382.28 299.998 382.712C298.672 382.833 297.355 382.956 296.048 383.081C294.963 383.18 293.892 383.286 292.829 383.386L292.637 383.407L292.503 382.244L291.964 377.536C289.873 374.123 288.577 370.283 288.172 366.301C287.767 362.319 288.263 358.297 289.624 354.533C291.496 349.484 294.885 345.023 298.218 340.599C302.82 334.486 307.294 328.445 307.457 320.992C309.722 323.89 311.605 327.067 313.059 330.444C311.687 331.091 310.453 331.999 309.429 333.118C309.138 333.437 308.847 333.884 309.046 334.267C309.216 334.593 309.641 334.671 310.01 334.713C310.897 334.805 311.79 334.898 312.676 334.99C313.386 335.068 314.095 335.139 314.804 335.217C315.662 338.032 316.243 340.925 316.541 343.853C317.019 348.409 316.772 353.011 315.811 357.489Z" fill="#3F3D56"/>
<path d="M339.353 338.9C335.169 341.942 332.723 346.317 330.822 351.139C328.875 351.763 327.122 352.882 325.738 354.387C325.447 354.706 325.157 355.153 325.355 355.536C325.525 355.862 325.951 355.94 326.319 355.982C327.206 356.075 328.099 356.167 328.986 356.259C327.085 361.96 325.341 367.86 321.98 372.675C319.745 375.853 316.831 378.496 313.449 380.411C312.527 380.936 311.576 381.407 310.599 381.822C306.997 382.099 303.463 382.394 299.998 382.708C298.672 382.829 297.355 382.952 296.048 383.077C294.963 383.176 293.892 383.283 292.829 383.382C292.822 382.992 292.822 382.602 292.829 382.212C293.053 371.823 296.875 361.833 303.643 353.947C303.962 353.579 304.288 353.217 304.621 352.855C308.05 349.193 312.082 346.147 316.541 343.85C323.568 340.196 331.444 338.487 339.353 338.9Z" fill="#EA6535"/>
<path d="M297.275 379.439L296.459 381.85L296.048 383.077C294.963 383.176 293.892 383.282 292.829 383.382L292.637 383.403C291.46 383.524 290.29 383.644 289.12 383.765C288.815 383.41 288.51 383.048 288.212 382.68C280.811 373.717 277.258 362.189 278.33 350.614C279.403 339.04 285.013 328.361 293.935 320.91C292.999 325.81 294.091 330.504 295.885 335.163C295.693 335.241 295.509 335.319 295.332 335.404C293.959 336.05 292.726 336.958 291.701 338.077C291.41 338.396 291.12 338.843 291.318 339.226C291.488 339.552 291.914 339.63 292.283 339.673C293.169 339.765 294.062 339.857 294.949 339.949C295.658 340.027 296.367 340.098 297.076 340.176C297.409 340.212 297.743 340.247 298.076 340.283C298.125 340.389 298.168 340.488 298.218 340.595C300.239 344.977 302.416 349.38 303.642 353.947C303.95 355.093 304.191 356.255 304.366 357.429C304.912 361.394 304.558 365.432 303.33 369.243C302.103 373.053 300.033 376.538 297.275 379.439Z" fill="#EA6535"/>
<path d="M368.652 276.592C362.547 264.685 353.09 254.666 341.967 247.304C330.808 239.952 318.003 235.474 304.695 234.271C302.95 234.112 301.201 234.019 299.448 233.992C297.376 233.961 266.215 242.949 255.777 250.289C245.344 257.539 236.761 267.14 230.722 278.317C224.693 289.556 221.728 302.183 222.124 314.931C222.641 327.755 226.215 340.269 232.55 351.432C238.797 362.558 247.669 371.99 258.392 378.907C269.268 385.846 280.193 404.247 293.035 404.896C305.973 405.551 320.728 388.193 332.528 382.923C344.328 377.609 354.53 369.295 362.115 358.81C369.487 348.535 374.256 336.625 376.013 324.102C377.838 311.279 376.987 298.054 372.608 285.799C371.485 282.65 370.163 279.575 368.652 276.592C367.39 274.107 363.691 273.192 361.375 274.684C360.182 275.419 359.318 276.585 358.963 277.94C358.608 279.295 358.788 280.735 359.467 281.961C360.208 283.42 360.897 284.904 361.535 286.412L360.998 285.142C363.409 290.939 365.049 297.027 365.874 303.251L365.685 301.837C366.563 308.589 366.547 315.428 365.638 322.176L365.828 320.762C364.908 327.509 363.107 334.107 360.471 340.386L361.007 339.115C359.65 342.319 358.07 345.422 356.276 348.403C355.367 349.909 354.402 351.38 353.382 352.815C352.934 353.445 352.473 354.064 352.008 354.681C351.4 355.486 352.835 353.629 352.208 354.419C352.101 354.553 351.995 354.688 351.887 354.822C351.565 355.225 351.239 355.624 350.907 356.019C348.697 358.657 346.284 361.119 343.691 363.382C343.045 363.946 342.389 364.497 341.722 365.035C341.389 365.303 341.061 365.583 340.714 365.833C340.727 365.823 341.834 364.982 341.179 365.47C340.973 365.624 340.769 365.78 340.562 365.933C339.187 366.952 337.775 367.919 336.326 368.834C332.991 370.935 329.492 372.764 325.863 374.304L327.133 373.767C320.873 376.403 314.294 378.203 307.564 379.122L308.978 378.932C302.252 379.841 295.435 379.853 288.706 378.968L290.12 379.158C284.004 378.337 278.021 376.72 272.325 374.347L273.595 374.883C270.295 373.49 267.114 371.832 264.082 369.926C262.581 368.981 261.119 367.977 259.697 366.914C259.494 366.763 259.293 366.609 259.091 366.456C258.441 365.967 259.557 366.818 259.566 366.824C259.188 366.553 258.825 366.263 258.477 365.955C257.79 365.396 257.114 364.823 256.448 364.238C253.785 361.893 251.298 359.354 249.008 356.644C248.434 355.966 247.873 355.278 247.324 354.58C247.087 354.278 246.653 353.665 247.611 354.955C247.485 354.785 247.354 354.619 247.227 354.45C246.921 354.045 246.62 353.636 246.322 353.225C245.281 351.784 244.291 350.308 243.353 348.796C241.232 345.374 239.382 341.792 237.818 338.083L238.354 339.353C235.795 333.264 234.045 326.866 233.149 320.323L233.339 321.737C232.53 315.705 232.519 309.593 233.305 303.558L233.115 304.972C233.92 299.128 235.492 293.416 237.791 287.983L237.255 289.253C238.701 285.852 240.406 282.567 242.357 279.428C243.333 277.857 244.368 276.324 245.461 274.83C245.709 274.49 245.96 274.152 246.214 273.817C246.444 273.514 247.076 272.758 245.998 274.092C246.103 273.962 246.205 273.827 246.309 273.695C246.909 272.935 247.524 272.187 248.153 271.451C250.534 268.664 253.113 266.052 255.87 263.636C256.567 263.025 257.275 262.428 257.994 261.843C258.32 261.577 258.649 261.314 258.98 261.054C259.112 260.949 259.246 260.847 259.378 260.743C257.962 261.87 258.985 261.049 259.306 260.808C260.788 259.698 262.309 258.644 263.869 257.645C267.339 255.426 270.988 253.503 274.78 251.896L273.51 252.432C279.012 250.121 303.392 244.668 307.826 245.263L306.412 245.073C312.929 245.983 319.299 247.743 325.359 250.308L324.088 249.772C327.159 251.076 330.144 252.575 333.023 254.26C334.462 255.103 335.872 255.992 337.255 256.928C337.909 257.37 338.556 257.823 339.196 258.286C339.516 258.517 339.834 258.751 340.151 258.987C340.327 259.118 340.501 259.251 340.677 259.382C341.413 259.935 339.661 258.582 340.434 259.193C343.019 261.225 345.475 263.416 347.786 265.755C348.921 266.911 350.017 268.103 351.074 269.332C351.616 269.963 352.147 270.603 352.667 271.252C352.925 271.575 353.805 272.742 352.727 271.312C352.99 271.662 353.257 272.009 353.517 272.361C355.758 275.394 357.748 278.605 359.467 281.961C360.739 284.441 364.422 285.366 366.744 283.869C367.937 283.134 368.801 281.968 369.157 280.613C369.512 279.258 369.331 277.818 368.652 276.592Z" fill="#3F3D56"/>
<path d="M306.683 363.381C306.134 363.406 305.59 363.262 305.126 362.968C304.662 362.674 304.299 362.245 304.087 361.738C303.875 361.231 303.824 360.671 303.941 360.134C304.058 359.597 304.337 359.109 304.74 358.736C304.808 358.467 304.856 358.274 304.924 358.006C304.9 357.947 304.876 357.889 304.851 357.83C302.384 351.946 286.638 368.349 285.957 373.878C285.657 376.323 285.784 378.801 286.331 381.202C281.231 370.076 278.582 357.984 278.565 345.745C278.564 342.674 278.735 339.605 279.076 336.553C279.359 334.05 279.75 331.566 280.251 329.1C282.985 315.716 288.854 303.173 297.377 292.498C302.251 292.77 306.523 292.028 306.935 282.581C307.009 280.901 308.255 279.446 308.53 277.791C308.064 277.852 307.591 277.89 307.126 277.92C306.981 277.928 306.829 277.936 306.684 277.943L306.629 277.946C306.118 277.969 305.61 277.843 305.169 277.585C304.727 277.326 304.369 276.945 304.139 276.488C303.908 276.031 303.815 275.517 303.87 275.008C303.925 274.499 304.125 274.017 304.448 273.619C304.649 273.372 304.85 273.125 305.051 272.878C305.356 272.497 305.669 272.123 305.974 271.741C306.009 271.705 306.042 271.667 306.073 271.627C306.424 271.192 306.775 270.765 307.126 270.33C306.486 269.336 305.624 268.503 304.609 267.897C301.092 265.837 296.24 267.263 293.7 270.445C291.152 273.626 290.672 278.088 291.556 282.063C292.427 285.444 293.866 288.654 295.813 291.552C295.622 291.796 295.424 292.033 295.233 292.277C291.747 296.76 288.709 301.574 286.161 306.649C286.882 301.02 278.069 280.691 274.661 276.384C270.568 271.212 262.173 273.47 261.452 280.026C261.445 280.09 261.438 280.153 261.432 280.217C261.938 280.502 262.434 280.805 262.918 281.126C263.527 281.533 263.999 282.114 264.272 282.794C264.545 283.474 264.607 284.22 264.448 284.935C264.29 285.65 263.919 286.301 263.384 286.802C262.85 287.303 262.176 287.63 261.453 287.742L261.378 287.753C254.602 297.428 276.324 322.609 281.762 316.955C279.202 324.208 277.597 331.762 276.986 339.428C276.64 343.951 276.661 348.495 277.047 353.015L277.024 352.854C275.816 343.01 255.091 328.375 249.039 329.594C245.552 330.296 242.118 330.136 242.648 333.653C242.656 333.709 242.665 333.765 242.674 333.822C243.613 334.204 244.528 334.645 245.412 335.141C245.918 335.427 246.414 335.73 246.899 336.051C247.508 336.457 247.98 337.039 248.253 337.719C248.526 338.398 248.587 339.145 248.428 339.86C248.27 340.575 247.899 341.226 247.365 341.727C246.83 342.227 246.157 342.555 245.433 342.667L245.359 342.678C245.305 342.686 245.259 342.693 245.206 342.701C242.122 353.314 264.995 370.441 278.901 364.991H278.909C280.287 370.98 282.283 376.808 284.866 382.384H306.15C306.226 382.148 306.295 381.903 306.363 381.667C304.393 381.791 302.415 381.673 300.474 381.316C302.053 379.378 303.632 377.426 305.211 375.488C305.246 375.452 305.28 375.414 305.31 375.374C306.111 374.382 306.92 373.398 307.721 372.406L307.721 372.405C307.764 369.365 307.415 366.332 306.684 363.382L306.683 363.381ZM282.311 315.437L282.322 315.422L282.311 315.452V315.437ZM277.596 357.935L277.413 357.523C277.421 357.226 277.421 356.928 277.413 356.623C277.413 356.539 277.398 356.455 277.398 356.371C277.467 356.897 277.528 357.424 277.604 357.95L277.596 357.935Z" fill="#3F3D56"/>
<path d="M67.5413 319.092C71.8492 319.092 75.3414 315.6 75.3414 311.292C75.3414 306.984 71.8492 303.492 67.5413 303.492C63.2334 303.492 59.7412 306.984 59.7412 311.292C59.7412 315.6 63.2334 319.092 67.5413 319.092Z" fill="#3F3D56"/>
<path d="M161.143 404.19C165.45 404.19 168.943 400.698 168.943 396.39C168.943 392.082 165.45 388.59 161.143 388.59C156.835 388.59 153.343 392.082 153.343 396.39C153.343 400.698 156.835 404.19 161.143 404.19Z" fill="#3F3D56"/>
<path d="M516.401 404.19C520.709 404.19 524.201 400.698 524.201 396.39C524.201 392.082 520.709 388.59 516.401 388.59C512.093 388.59 508.601 392.082 508.601 396.39C508.601 400.698 512.093 404.19 516.401 404.19Z" fill="#3F3D56"/>
<path d="M535.546 304.917C539.854 304.917 543.346 301.424 543.346 297.116C543.346 292.809 539.854 289.316 535.546 289.316C531.238 289.316 527.746 292.809 527.746 297.116C527.746 301.424 531.238 304.917 535.546 304.917Z" fill="#3F3D56"/>
<path d="M512.855 232.585C517.163 232.585 520.655 229.092 520.655 224.784C520.655 220.477 517.163 216.984 512.855 216.984C508.547 216.984 505.055 220.477 505.055 224.784C505.055 229.092 508.547 232.585 512.855 232.585Z" fill="#3F3D56"/>
<path d="M187.378 297.114C187.374 299.107 186.603 301.021 185.226 302.461C183.85 303.901 181.972 304.757 179.981 304.851C177.991 304.945 176.041 304.271 174.534 302.967C173.028 301.663 172.08 299.83 171.887 297.847C171.694 295.864 172.271 293.883 173.499 292.313C174.726 290.744 176.51 289.706 178.481 289.415C180.452 289.124 182.459 289.602 184.088 290.75C185.716 291.898 186.841 293.628 187.23 295.583C187.33 296.087 187.379 296.6 187.378 297.114Z" fill="#3F3D56"/>
<path d="M343.38 255.28C347.688 255.28 351.18 251.788 351.18 247.48C351.18 243.172 347.688 239.68 343.38 239.68C339.073 239.68 335.58 243.172 335.58 247.48C335.58 251.788 339.073 255.28 343.38 255.28Z" fill="#3F3D56"/>
<path d="M266.089 247.478C266.084 249.47 265.313 251.384 263.937 252.824C262.56 254.265 260.682 255.12 258.692 255.214C256.702 255.309 254.751 254.634 253.245 253.33C251.738 252.027 250.79 250.194 250.597 248.211C250.404 246.227 250.981 244.246 252.209 242.677C253.436 241.107 255.22 240.07 257.191 239.779C259.162 239.488 261.17 239.966 262.798 241.114C264.427 242.262 265.551 243.992 265.94 245.946C266.04 246.45 266.09 246.963 266.089 247.478Z" fill="#3F3D56"/>
<path d="M165.397 224.786C165.392 226.779 164.622 228.693 163.245 230.133C161.868 231.573 159.99 232.429 158 232.523C156.01 232.617 154.059 231.943 152.553 230.639C151.046 229.335 150.098 227.502 149.905 225.519C149.713 223.536 150.29 221.555 151.517 219.985C152.744 218.416 154.528 217.378 156.499 217.087C158.47 216.796 160.478 217.274 162.106 218.422C163.735 219.57 164.859 221.3 165.248 223.254C165.348 223.759 165.398 224.272 165.397 224.786Z" fill="#3F3D56"/>
<path d="M424.927 321.932C429.235 321.932 432.727 318.44 432.727 314.132C432.727 309.824 429.235 306.332 424.927 306.332C420.619 306.332 417.127 309.824 417.127 314.132C417.127 318.44 420.619 321.932 424.927 321.932Z" fill="#3F3D56"/>
<path d="M302.253 251.019C308.519 251.019 313.598 245.94 313.598 239.674C313.598 233.408 308.519 228.328 302.253 228.328C295.987 228.328 290.907 233.408 290.907 239.674C290.907 245.94 295.987 251.019 302.253 251.019Z" fill="#3F3D56"/>
<path d="M609.073 404.786L0.844549 405.004C0.733672 405.004 0.623879 404.982 0.521442 404.94C0.419006 404.897 0.325936 404.835 0.247535 404.757C0.169133 404.678 0.106935 404.585 0.064504 404.483C0.0220735 404.381 0.000244141 404.271 0.000244141 404.16C0.000244141 404.049 0.0220735 403.939 0.064504 403.837C0.106935 403.734 0.169133 403.641 0.247535 403.563C0.325936 403.484 0.419006 403.422 0.521442 403.38C0.623879 403.337 0.733672 403.316 0.844549 403.316L609.073 403.098C609.297 403.098 609.511 403.188 609.669 403.346C609.827 403.504 609.915 403.718 609.915 403.942C609.915 404.165 609.827 404.38 609.669 404.538C609.511 404.696 609.297 404.786 609.073 404.786Z" fill="#CACACA"/>
</g>
<defs>
<clipPath id="clip0_26_25530">
<rect width="609.918" height="405" fill="white"/>
</clipPath>
</defs>
</svg>
