<svg width="471" height="371" viewBox="0 0 471 371" fill="none" xmlns="http://www.w3.org/2000/svg">
<g clipPath="url(#clip0_1_32621)">
<path d="M85.7802 43.7562C84.8963 43.8538 84.0445 44.1439 83.2848 44.6063C82.5251 45.0687 81.8761 45.692 81.3834 46.4323C80.8906 47.1727 80.5662 48.012 80.433 48.8913C80.2998 49.7706 80.361 50.6684 80.6122 51.5214L63.0239 64.0898L73.5079 68.1243L88.6028 55.5707C90.0079 55.0536 91.1745 54.039 91.8816 52.7192C92.5887 51.3994 92.787 49.8661 92.4391 48.4098C92.0912 46.9535 91.2212 45.6754 89.9939 44.8177C88.7666 43.9601 87.2674 43.5824 85.7802 43.7562Z" fill="#FFB8B8"/>
<path d="M84.1435 62.6903L62.3269 84.6419C59.337 87.6309 55.3944 89.478 51.1842 89.8622L24.2261 92.3219C23.2378 92.4162 22.2406 92.3114 21.2935 92.0138C20.3464 91.7161 19.4685 91.2317 18.7118 90.589C17.6649 89.7128 16.8865 88.559 16.4658 87.2602C16.0452 85.9615 15.9995 84.5704 16.3339 83.2468C16.6683 81.9232 17.3693 80.7208 18.3564 79.7777C19.3434 78.8346 20.5765 78.189 21.9139 77.9152L49.4547 72.0511L74.5285 53.5683C74.8771 53.3722 75.2709 53.2705 75.6708 53.2735C76.0708 53.2765 76.4631 53.384 76.8087 53.5853L83.6275 59.1712C84.0377 59.396 84.3673 59.7436 84.5699 60.1652C84.7725 60.5869 84.8381 61.0614 84.7573 61.5222C84.6778 61.9655 84.4634 62.3734 84.1435 62.6903Z" fill="#2F2E41"/>
<path d="M345.712 74.4844C345.874 72.9858 345.571 71.4737 344.844 70.1533C344.117 68.833 343.001 67.7686 341.648 67.1047L205.874 0.744676C205.011 0.322263 204.073 0.0740448 203.114 0.0142004C202.154 -0.045644 201.192 0.0840525 200.283 0.395887C199.374 0.707722 198.535 1.19559 197.814 1.83163C197.094 2.46767 196.505 3.23942 196.083 4.10284L196.081 4.10793L145.157 108.299C144.307 110.044 144.184 112.055 144.814 113.891C145.444 115.727 146.777 117.238 148.52 118.093L284.293 184.453C286.039 185.303 288.05 185.426 289.886 184.795C291.721 184.165 293.232 182.832 294.087 181.089L345.011 76.8986C345.383 76.1406 345.62 75.3237 345.712 74.4844Z" fill="#F2F2F2"/>
<path d="M266.17 305.741H89.9966C87.7786 305.739 85.6522 304.857 84.0839 303.288C82.5155 301.72 81.6334 299.594 81.6309 297.376V58.2134C81.6334 55.9954 82.5155 53.869 84.0839 52.3007C85.6522 50.7323 87.7786 49.8502 89.9966 49.8477H266.17C268.388 49.8502 270.514 50.7323 272.082 52.3007C273.651 53.869 274.533 55.9954 274.535 58.2134V297.376C274.533 299.594 273.651 301.72 272.082 303.288C270.514 304.857 268.388 305.739 266.17 305.741Z" fill="white"/>
<path d="M136.723 121.16C143.071 121.16 148.217 116.014 148.217 109.666C148.217 103.318 143.071 98.1719 136.723 98.1719C130.375 98.1719 125.229 103.318 125.229 109.666C125.229 116.014 130.375 121.16 136.723 121.16Z" fill="#E6E6E6"/>
<path d="M119.203 141.078C120.827 142.001 122.527 142.785 124.284 143.42L124.594 143.527C128.133 144.77 131.858 145.402 135.608 145.398C136.363 145.398 137.09 145.372 137.769 145.32C139.422 145.219 141.065 144.992 142.683 144.643C143.571 144.449 144.457 144.216 145.313 143.953C145.521 143.892 145.712 143.832 145.922 143.766C149.414 142.634 152.695 140.934 155.633 138.735C155.397 138.289 155.139 137.855 154.859 137.435C153.348 135.126 151.286 133.231 148.858 131.921C146.431 130.61 143.715 129.926 140.956 129.93H134.906C131.716 129.93 128.592 130.848 125.908 132.573C123.224 134.299 121.093 136.759 119.768 139.662C119.556 140.124 119.367 140.597 119.203 141.078Z" fill="#E6E6E6"/>
<path d="M140.626 144.358C140.24 144.386 139.868 144.517 139.549 144.736C141.171 144.635 142.783 144.411 144.371 144.066L140.626 144.358Z" fill="#2F2E41"/>
<path d="M137.421 78.4766C130.018 78.4773 122.822 80.9217 116.951 85.4304C111.08 89.939 106.861 96.2597 104.95 103.411C103.038 110.563 103.541 118.146 106.381 124.982C109.22 131.819 114.236 137.527 120.652 141.221C122.354 142.207 124.142 143.039 125.993 143.707L126.308 143.816C129.878 145.07 133.636 145.708 137.421 145.703C138.153 145.703 138.884 145.679 139.604 145.625C141.271 145.522 142.927 145.294 144.559 144.941C145.472 144.742 146.368 144.506 147.214 144.246C147.42 144.185 147.614 144.125 147.825 144.058C155.434 141.58 161.908 136.469 166.086 129.645C170.263 122.82 171.87 114.729 170.616 106.826C169.362 98.9233 165.33 91.7268 159.246 86.5303C153.161 81.3339 145.422 78.4781 137.421 78.4766ZM156.924 137.271C154.024 139.508 150.76 141.229 147.275 142.358C147.087 142.419 146.894 142.479 146.7 142.54C145.896 142.788 145.049 143.005 144.178 143.193C142.634 143.53 141.067 143.748 139.489 143.846C138.806 143.895 138.11 143.919 137.421 143.919C133.838 143.921 130.282 143.318 126.901 142.134L126.604 142.031C124.763 141.37 122.989 140.535 121.305 139.539C115.44 136.086 110.838 130.844 108.174 124.582C105.51 118.32 104.924 111.368 106.504 104.748C108.084 98.129 111.745 92.1907 116.949 87.8062C122.154 83.4217 128.628 80.8222 135.419 80.3896C142.211 79.9571 148.962 81.7143 154.681 85.4031C160.4 89.0919 164.785 94.5178 167.191 100.883C169.598 107.249 169.899 114.219 168.051 120.768C166.203 127.318 162.303 133.102 156.924 137.271Z" fill="#CCCCCC"/>
<path d="M266.17 305.741H89.9966C87.7786 305.739 85.6522 304.857 84.0839 303.288C82.5155 301.72 81.6334 299.594 81.6309 297.376V58.2134C81.6334 55.9954 82.5155 53.869 84.0839 52.3007C85.6522 50.7323 87.7786 49.8502 89.9966 49.8477H266.17C268.388 49.8502 270.514 50.7323 272.082 52.3007C273.651 53.869 274.533 55.9954 274.535 58.2134V297.376C274.533 299.594 273.651 301.72 272.082 303.288C270.514 304.857 268.388 305.739 266.17 305.741ZM89.9966 50.8319C88.0396 50.8341 86.1633 51.6125 84.7795 52.9963C83.3957 54.3801 82.6173 56.2564 82.6151 58.2134V297.376C82.6173 299.333 83.3957 301.209 84.7795 302.593C86.1633 303.977 88.0396 304.755 89.9966 304.757H266.17C268.127 304.755 270.003 303.977 271.387 302.593C272.771 301.209 273.549 299.333 273.551 297.376V58.2134C273.549 56.2564 272.771 54.3801 271.387 52.9963C270.003 51.6125 268.127 50.8341 266.17 50.8319L89.9966 50.8319Z" fill="#CCCCCC"/>
<path d="M232.064 111.962H182.213C181.167 111.962 180.164 111.546 179.425 110.807C178.685 110.067 178.27 109.064 178.27 108.018C178.27 106.972 178.685 105.969 179.425 105.229C180.164 104.49 181.167 104.074 182.213 104.074H232.064C233.11 104.074 234.113 104.49 234.853 105.229C235.592 105.969 236.008 106.972 236.008 108.018C236.008 109.064 235.592 110.067 234.853 110.807C234.113 111.546 233.11 111.962 232.064 111.962Z" fill="#E6E6E6"/>
<path d="M248.332 125.27H182.213C181.167 125.27 180.164 124.855 179.425 124.115C178.685 123.376 178.27 122.373 178.27 121.327C178.27 120.281 178.685 119.278 179.425 118.538C180.164 117.798 181.167 117.383 182.213 117.383H248.332C249.378 117.383 250.381 117.798 251.121 118.538C251.861 119.278 252.276 120.281 252.276 121.327C252.276 122.373 251.861 123.376 251.121 124.115C250.381 124.855 249.378 125.27 248.332 125.27Z" fill="#E6E6E6"/>
<path d="M231.993 176.321H107.834C106.788 176.321 105.785 175.906 105.046 175.166C104.306 174.426 103.891 173.423 103.891 172.377C103.891 171.331 104.306 170.328 105.046 169.589C105.785 168.849 106.788 168.434 107.834 168.434H231.993C233.039 168.434 234.042 168.849 234.782 169.589C235.521 170.328 235.937 171.331 235.937 172.377C235.937 173.423 235.521 174.426 234.782 175.166C234.042 175.906 233.039 176.321 231.993 176.321Z" fill="#E6E6E6"/>
<path d="M248.261 189.63H107.834C106.788 189.63 105.785 189.214 105.046 188.475C104.306 187.735 103.891 186.732 103.891 185.686C103.891 184.64 104.306 183.637 105.046 182.897C105.785 182.158 106.788 181.742 107.834 181.742H248.261C249.307 181.742 250.31 182.158 251.05 182.897C251.789 183.637 252.205 184.64 252.205 185.686C252.205 186.732 251.789 187.735 251.05 188.475C250.31 189.214 249.307 189.63 248.261 189.63Z" fill="#E6E6E6"/>
<path d="M231.993 220.22H107.834C106.788 220.22 105.785 219.804 105.046 219.064C104.306 218.325 103.891 217.322 103.891 216.276C103.891 215.23 104.306 214.227 105.046 213.487C105.785 212.748 106.788 212.332 107.834 212.332H231.993C233.039 212.332 234.042 212.748 234.782 213.487C235.521 214.227 235.937 215.23 235.937 216.276C235.937 217.322 235.521 218.325 234.782 219.064C234.042 219.804 233.039 220.22 231.993 220.22Z" fill="#E6E6E6"/>
<path d="M248.261 233.536H107.834C106.788 233.536 105.785 233.12 105.046 232.381C104.306 231.641 103.891 230.638 103.891 229.592C103.891 228.546 104.306 227.543 105.046 226.804C105.785 226.064 106.788 225.648 107.834 225.648H248.261C249.307 225.648 250.31 226.064 251.05 226.804C251.789 227.543 252.205 228.546 252.205 229.592C252.205 230.638 251.789 231.641 251.05 232.381C250.31 233.12 249.307 233.536 248.261 233.536Z" fill="#E6E6E6"/>
<path d="M231.993 264.126H107.834C106.788 264.126 105.785 263.71 105.046 262.971C104.306 262.231 103.891 261.228 103.891 260.182C103.891 259.136 104.306 258.133 105.046 257.393C105.785 256.654 106.788 256.238 107.834 256.238H231.993C233.039 256.238 234.042 256.654 234.782 257.393C235.521 258.133 235.937 259.136 235.937 260.182C235.937 261.228 235.521 262.231 234.782 262.971C234.042 263.71 233.039 264.126 231.993 264.126Z" fill="#E6E6E6"/>
<path d="M248.261 277.434H107.834C106.788 277.434 105.785 277.019 105.046 276.279C104.306 275.54 103.891 274.537 103.891 273.491C103.891 272.445 104.306 271.442 105.046 270.702C105.785 269.962 106.788 269.547 107.834 269.547H248.261C249.306 269.548 250.308 269.964 251.047 270.704C251.785 271.443 252.2 272.446 252.2 273.491C252.2 274.536 251.785 275.538 251.047 276.278C250.308 277.017 249.306 277.433 248.261 277.434Z" fill="#E6E6E6"/>
<path d="M339.662 142.844C339.825 141.345 339.522 139.833 338.795 138.513C338.068 137.192 336.952 136.128 335.599 135.464L199.825 69.1041C198.962 68.6816 198.024 68.4334 197.064 68.3736C196.105 68.3137 195.143 68.4434 194.234 68.7553C193.325 69.0671 192.486 69.555 191.765 70.191C191.044 70.827 190.456 71.5988 190.034 72.4622L190.031 72.4673L139.107 176.658C138.257 178.403 138.134 180.414 138.765 182.25C139.395 184.086 140.728 185.597 142.471 186.452L278.244 252.812C279.989 253.662 282 253.785 283.836 253.155C285.672 252.524 287.183 251.191 288.038 249.449L338.962 145.258C339.334 144.5 339.571 143.683 339.662 142.844Z" fill="white"/>
<path d="M339.662 142.844C339.825 141.345 339.522 139.833 338.795 138.513C338.068 137.192 336.952 136.128 335.599 135.464L199.825 69.1041C198.962 68.6816 198.024 68.4334 197.064 68.3736C196.105 68.3137 195.143 68.4434 194.234 68.7553C193.325 69.0671 192.486 69.555 191.765 70.191C191.044 70.827 190.456 71.5988 190.034 72.4622L190.031 72.4673L139.107 176.658C138.257 178.403 138.134 180.414 138.765 182.25C139.395 184.086 140.728 185.597 142.471 186.452L278.244 252.812C279.989 253.662 282 253.785 283.836 253.155C285.672 252.524 287.183 251.191 288.038 249.449L338.962 145.258C339.334 144.5 339.571 143.683 339.662 142.844ZM287.264 249.07C286.51 250.608 285.177 251.785 283.557 252.341C281.937 252.897 280.162 252.788 278.622 252.038L142.849 185.678C141.311 184.924 140.135 183.591 139.578 181.971C139.022 180.351 139.131 178.576 139.881 177.036L190.805 72.8456C191.559 71.3076 192.892 70.1314 194.512 69.5751C196.132 69.0188 197.907 69.1277 199.447 69.878L335.22 136.238C336.758 136.992 337.934 138.325 338.491 139.945C339.047 141.565 338.938 143.34 338.188 144.88L287.264 249.07Z" fill="#3F3D56"/>
<path d="M324.854 147.582L289.295 220.335C289.058 220.821 288.638 221.193 288.126 221.368C287.615 221.544 287.055 221.51 286.57 221.272L163.065 160.909C162.977 160.867 162.892 160.817 162.813 160.76C162.408 160.485 162.116 160.072 161.99 159.599C161.864 159.125 161.914 158.622 162.129 158.182L197.687 85.4289C197.805 85.1884 197.968 84.9734 198.169 84.7961C198.369 84.6189 198.603 84.4829 198.856 84.3959C199.109 84.3088 199.377 84.2725 199.644 84.289C199.911 84.3055 200.172 84.3744 200.413 84.4919L323.917 144.855C324.403 145.092 324.775 145.513 324.95 146.024C325.126 146.535 325.092 147.095 324.854 147.581L324.854 147.582Z" fill="#E6E6E6"/>
<path d="M216.426 143.885C226.304 143.885 234.312 135.877 234.312 125.999C234.312 116.121 226.304 108.113 216.426 108.113C206.548 108.113 198.54 116.121 198.54 125.999C198.54 135.877 206.548 143.885 216.426 143.885Z" fill="#EA6535"/>
<path d="M242.611 200.146L163.779 161.617C163.68 161.57 163.585 161.514 163.496 161.45L232.344 115.092C232.768 114.801 233.262 114.628 233.775 114.59C234.288 114.552 234.802 114.651 235.264 114.877C235.726 115.103 236.12 115.447 236.405 115.875C236.69 116.303 236.857 116.799 236.888 117.313L240.728 172.881L240.913 175.541L242.611 200.146Z" fill="#3F3D56"/>
<path opacity="0.2" d="M242.61 200.152L215.695 186.997L238.288 174.263L239.915 173.346L240.728 172.887L240.913 175.546L242.61 200.152Z" fill="black"/>
<path d="M286.506 221.602L218.323 188.277L240.916 175.543L242.542 174.625L271.983 158.03C273.913 156.942 276.678 158.168 277.306 160.248C277.347 160.39 277.379 160.533 277.402 160.679L286.506 221.602Z" fill="#3F3D56"/>
<path d="M76.1312 227.955L83.5472 227.954L87.0758 199.348L76.1294 199.348L76.1312 227.955Z" fill="#FFB8B8"/>
<path d="M74.2393 225.528L88.8448 225.527C90.0671 225.527 91.2781 225.768 92.4074 226.236C93.5366 226.704 94.5627 227.389 95.4271 228.253C96.2914 229.118 96.977 230.144 97.4448 231.273C97.9125 232.402 98.1533 233.613 98.1532 234.835V235.138L74.2397 235.138L74.2393 225.528Z" fill="#2F2E41"/>
<path d="M18.4854 223.232L26.1693 224.734L35.6233 195.812L24.2831 193.594L18.4854 223.232Z" fill="#FFB8B8"/>
<path d="M17.016 220.34L32.1482 223.3L32.1488 223.3C33.4152 223.548 34.6204 224.042 35.6955 224.756C36.7707 225.47 37.6948 226.388 38.4151 227.458C39.1354 228.529 39.6377 229.731 39.8934 230.996C40.1492 232.261 40.1532 233.564 39.9054 234.83L39.8441 235.143L15.0684 230.297L17.016 220.34Z" fill="#2F2E41"/>
<path d="M86.9174 129.274C86.6663 128.421 86.2312 127.633 85.6428 126.967C85.0543 126.3 84.3268 125.77 83.5116 125.415C82.6963 125.06 81.813 124.888 80.924 124.911C80.035 124.934 79.1618 125.151 78.3661 125.548L62.9073 110.438L60.7744 121.467L75.7813 134.125C76.5369 135.418 77.7404 136.389 79.1637 136.853C80.5871 137.318 82.1315 137.244 83.5041 136.646C84.8768 136.048 85.9824 134.967 86.6115 133.609C87.2406 132.25 87.3495 130.708 86.9174 129.274Z" fill="#FFB8B8"/>
<path d="M29.5674 51.4971C37.7732 51.4971 44.4253 44.845 44.4253 36.6392C44.4253 28.4334 37.7732 21.7812 29.5674 21.7812C21.3616 21.7812 14.7095 28.4334 14.7095 36.6392C14.7095 44.845 21.3616 51.4971 29.5674 51.4971Z" fill="#FFB8B8"/>
<path d="M26.4453 51.7232C27.2347 52.0686 28.8513 45.7782 28.1272 44.5201C27.0503 42.6491 27.1139 42.6625 26.399 41.4247C25.6841 40.1868 25.5241 38.4924 26.4499 37.4033C27.3757 36.3141 29.5182 36.4586 29.9407 37.8242C29.6689 35.2303 32.2345 33.1453 34.7759 32.5593C37.3174 31.9734 39.9981 32.3372 42.5535 31.8157C45.5191 31.2106 48.6048 28.7247 47.4215 25.4635C47.2184 24.9205 46.9145 24.4209 46.5256 23.991C45.1585 22.4539 43.2461 21.7975 41.3763 21.1629C37.4865 19.8427 33.4903 18.5058 29.3851 18.6516C26.0027 18.8284 22.7452 19.9875 20.0112 21.9869C17.2773 23.9863 15.1854 26.7393 13.9917 29.909C13.7088 30.702 13.4897 31.5163 13.3363 32.3441C11.9273 39.9205 16.3269 47.3937 23.4728 50.2788L26.4453 51.7232Z" fill="#2F2E41"/>
<path d="M22.7984 133.344C22.4195 133.115 22.1158 132.78 21.9247 132.381C21.7336 131.981 21.6635 131.535 21.7229 131.096L15.0184 97.8839L8.22228 72.3949C7.47618 69.6019 7.70166 66.6383 8.86145 63.9902C10.0212 61.3422 12.0466 59.167 14.6053 57.8214L19.0982 53.5703L28.8996 57.7931L33.5571 62.5286C36.8976 64.1551 39.8608 66.4626 42.2563 69.3027C44.6518 72.1428 46.4266 75.4527 47.4665 79.0197L54.9365 104.581L72.1878 130.247C72.4758 130.675 72.6105 131.187 72.5699 131.701C72.5294 132.215 72.3159 132.701 71.9643 133.078C69.5643 135.659 22.7984 133.344 22.7984 133.344Z" fill="#2F2E41"/>
<path d="M67.9961 130.987L42.5579 113.359C39.0908 110.94 36.5807 107.383 35.4639 103.305L28.3135 77.1966C28.0473 76.2401 27.9755 75.24 28.1024 74.2554C28.2293 73.2707 28.5523 72.3215 29.0522 71.4638C29.7312 70.2795 30.7305 69.3107 31.9354 68.6687C33.1402 68.0268 34.5017 67.7377 35.8635 67.8348C37.2252 67.9318 38.5319 68.411 39.6336 69.2174C40.7352 70.0237 41.587 71.1244 42.0912 72.3931L52.6955 98.4781L75.29 119.921C75.5443 120.23 75.7134 120.6 75.7807 120.994C75.8479 121.388 75.8109 121.793 75.6733 122.169L71.3702 129.862C71.2208 130.305 70.9364 130.69 70.5568 130.964C70.1773 131.237 69.7216 131.385 69.2538 131.386C68.8034 131.386 68.3642 131.246 67.9961 130.987Z" fill="#2F2E41"/>
<path d="M15.1452 218.802C14.9372 218.504 14.804 218.16 14.7569 217.799C14.7098 217.439 14.7501 217.073 14.8744 216.731L26.6427 173.95L27.5126 132.031L67.1278 129.314L67.3201 129.301L79.252 150.927C82.9877 157.688 85.2746 165.153 85.967 172.847L89.8991 215.936C89.9585 216.522 89.7859 217.108 89.4181 217.567C89.0504 218.027 88.5171 218.324 87.9326 218.395L75.9878 219.531C75.4122 219.601 74.8321 219.444 74.3712 219.092C73.9102 218.74 73.6049 218.223 73.5203 217.649L68.6699 173.862L51.2176 144.374L45.3593 175.418L33.2226 218.29C33.0639 218.718 32.7788 219.087 32.4051 219.35C32.0315 219.612 31.5869 219.754 31.1305 219.757L16.9749 219.763C16.6145 219.765 16.2591 219.678 15.9401 219.511C15.6211 219.343 15.3481 219.099 15.1452 218.802Z" fill="#2F2E41"/>
<path d="M318.481 359.505H19.9649C14.6723 359.499 9.59807 357.394 5.85558 353.651C2.11309 349.909 0.00793173 344.835 0.00195312 339.542V175.604C0.00793173 170.311 2.11309 165.237 5.85558 161.494C9.59807 157.752 14.6723 155.647 19.9649 155.641H56.5654C61.5314 155.636 66.32 157.487 69.992 160.831L109.683 189.173C112.271 191.538 115.65 192.847 119.156 192.844H320.334C322.98 192.844 325.6 193.37 328.041 194.392C330.482 195.414 332.696 196.91 334.553 198.795C336.41 200.68 337.875 202.915 338.86 205.371C339.846 207.826 340.334 210.453 340.295 213.099L338.442 339.834C338.344 345.07 336.2 350.061 332.47 353.737C328.739 357.413 323.718 359.483 318.481 359.505Z" fill="white"/>
<path d="M315.829 349.829H21.7309C19.1776 349.826 16.7298 348.81 14.9244 347.005C13.119 345.2 12.1035 342.752 12.1006 340.198V173.58C12.1035 171.026 13.119 168.578 14.9244 166.773C16.7298 164.968 19.1776 163.952 21.7309 163.949C23.9892 163.952 26.1543 164.85 27.7511 166.447C29.348 168.044 30.2462 170.209 30.2487 172.467V328.705C30.2515 331.097 31.2032 333.392 32.8952 335.084C34.5872 336.776 36.8813 337.727 39.2741 337.73H314.835C316.204 337.715 317.539 338.158 318.626 338.99C319.713 339.822 320.49 340.995 320.834 342.32C321.218 343.577 321.17 344.926 320.698 346.152C320.226 347.379 319.356 348.411 318.228 349.086C317.513 349.552 316.682 349.809 315.829 349.829Z" fill="#F2F2F2"/>
<path d="M171.456 269.812L170.682 269.037C170.521 268.887 170.427 268.679 170.42 268.46C170.413 268.24 170.493 268.026 170.643 267.866C170.656 267.853 170.668 267.84 170.682 267.827L177.475 261.028C177.55 260.948 177.639 260.884 177.738 260.84C177.837 260.795 177.944 260.77 178.053 260.766C178.162 260.762 178.27 260.78 178.372 260.819C178.474 260.857 178.567 260.915 178.647 260.989C178.66 261.002 178.673 261.015 178.685 261.028L185.478 267.821C185.558 267.898 185.622 267.99 185.666 268.091C185.71 268.192 185.733 268.301 185.735 268.412C185.737 268.522 185.717 268.632 185.677 268.734C185.636 268.837 185.576 268.931 185.499 269.01L185.478 269.031L184.704 269.806C184.627 269.885 184.536 269.949 184.435 269.993C184.333 270.037 184.224 270.06 184.114 270.062C184.004 270.064 183.894 270.044 183.791 270.004C183.688 269.963 183.595 269.903 183.515 269.826L183.494 269.806L179.478 265.571V275.619C179.478 275.729 179.458 275.837 179.416 275.939C179.375 276.041 179.314 276.133 179.237 276.211C179.16 276.289 179.069 276.351 178.968 276.394C178.867 276.437 178.758 276.459 178.649 276.46L178.643 276.46H177.524C177.301 276.46 177.087 276.371 176.929 276.214C176.771 276.056 176.683 275.842 176.683 275.619V265.583L172.666 269.818C172.51 269.977 172.297 270.069 172.074 270.071C171.851 270.074 171.637 269.988 171.477 269.833L171.456 269.812Z" fill="#EA6535"/>
<path d="M178.067 254.85C180.794 254.85 183.459 255.659 185.727 257.173C187.994 258.688 189.761 260.841 190.804 263.361C191.848 265.88 192.121 268.652 191.589 271.326C191.057 274 189.744 276.457 187.816 278.385C185.888 280.313 183.431 281.626 180.757 282.158C178.082 282.69 175.31 282.417 172.791 281.374C170.272 280.33 168.119 278.563 166.604 276.296C165.089 274.029 164.281 271.363 164.281 268.637C164.284 264.981 165.737 261.476 168.322 258.891C170.907 256.307 174.412 254.853 178.067 254.85ZM178.067 253.035C174.982 253.035 171.965 253.95 169.4 255.664C166.834 257.379 164.834 259.815 163.653 262.666C162.473 265.517 162.164 268.654 162.766 271.68C163.368 274.707 164.853 277.486 167.035 279.668C169.217 281.85 171.997 283.336 175.024 283.938C178.05 284.54 181.187 284.231 184.038 283.05C186.888 281.869 189.325 279.87 191.039 277.304C192.754 274.739 193.669 271.722 193.669 268.637C193.669 264.499 192.025 260.531 189.099 257.605C186.173 254.679 182.205 253.035 178.067 253.035Z" fill="#3F3D56"/>
<path d="M318.481 359.505H19.9649C14.6723 359.499 9.59807 357.394 5.85558 353.651C2.11309 349.909 0.00793173 344.835 0.00195312 339.542V175.604C0.00793173 170.311 2.11309 165.237 5.85558 161.494C9.59807 157.752 14.6723 155.647 19.9649 155.641H56.5654C61.5314 155.636 66.32 157.487 69.992 160.831L109.683 189.173C112.271 191.538 115.65 192.847 119.156 192.844H320.334C322.98 192.844 325.6 193.37 328.041 194.392C330.482 195.414 332.696 196.91 334.553 198.795C336.41 200.68 337.875 202.915 338.86 205.371C339.846 207.826 340.334 210.453 340.295 213.099L338.442 339.834C338.344 345.07 336.2 350.061 332.47 353.737C328.739 357.413 323.718 359.483 318.481 359.505ZM19.9649 156.851C14.993 156.856 10.2264 158.834 6.71073 162.349C3.19507 165.865 1.21748 170.632 1.21183 175.604V339.542C1.21748 344.514 3.19507 349.281 6.71073 352.796C10.2264 356.312 14.993 358.289 19.9649 358.295H318.481C323.401 358.275 328.118 356.33 331.622 352.877C335.126 349.423 337.14 344.735 337.232 339.816L339.086 213.081C339.122 210.596 338.664 208.128 337.738 205.821C336.812 203.514 335.436 201.415 333.691 199.644C331.947 197.874 329.867 196.468 327.574 195.508C325.281 194.548 322.82 194.054 320.334 194.054H119.156C115.361 194.057 111.702 192.644 108.894 190.091L69.2037 161.749C65.7511 158.594 61.2423 156.847 56.5654 156.851H19.9649Z" fill="#3F3D56"/>
<path d="M343.781 362.696H336.364L334.046 334.09L343.782 334.09L343.781 362.696Z" fill="#FFB8B8"/>
<path d="M345.672 369.885L321.758 369.884V369.581C321.758 368.359 321.999 367.148 322.467 366.019C322.935 364.89 323.62 363.864 324.484 363C325.349 362.135 326.375 361.45 327.504 360.982C328.633 360.514 329.844 360.273 331.066 360.273L345.672 360.274L345.672 369.885Z" fill="#2F2E41"/>
<path d="M426.657 362.696H419.241L415.713 334.09L426.659 334.09L426.657 362.696Z" fill="#FFB8B8"/>
<path d="M428.548 369.885L404.635 369.884V369.581C404.635 368.359 404.875 367.148 405.343 366.019C405.811 364.89 406.497 363.864 407.361 363C408.225 362.135 409.251 361.45 410.381 360.982C411.51 360.514 412.72 360.273 413.943 360.273L428.549 360.274L428.548 369.885Z" fill="#2F2E41"/>
<path d="M402.268 274.263C403.292 273.063 403.869 271.546 403.901 269.969C403.933 268.392 403.419 266.852 402.445 265.612C402.247 265.374 402.03 265.153 401.797 264.951L407.383 244.328L398.072 247.417L394.195 266.528C393.552 267.706 393.267 269.047 393.376 270.385C393.486 271.723 393.984 273 394.811 274.059C395.243 274.63 395.798 275.097 396.435 275.425C397.072 275.752 397.774 275.933 398.49 275.952C399.206 275.972 399.918 275.83 400.572 275.538C401.226 275.246 401.805 274.81 402.268 274.263Z" fill="#FFB8B8"/>
<path d="M401.91 261.575C401.793 261.575 401.677 261.566 401.561 261.549L396.71 260.818C396.332 260.753 395.974 260.606 395.659 260.388C395.344 260.17 395.081 259.885 394.887 259.555C394.467 258.851 394.316 258.019 394.462 257.212L400.515 223.407L396.41 201.689C395.618 197.509 397.66 193.288 401.159 191.87C402.197 191.445 403.328 191.297 404.44 191.439C405.553 191.582 406.609 192.01 407.507 192.683C408.475 193.416 409.278 194.345 409.864 195.409C410.45 196.473 410.805 197.648 410.907 198.858L413.813 226.55L413.778 226.671L404.428 259.488C404.293 260.063 403.974 260.578 403.52 260.955C403.065 261.331 402.5 261.549 401.91 261.575Z" fill="#EA6535"/>
<path d="M400.48 179.907C408.686 179.907 415.338 173.255 415.338 165.049C415.338 156.844 408.686 150.191 400.48 150.191C392.274 150.191 385.622 156.844 385.622 165.049C385.622 173.255 392.274 179.907 400.48 179.907Z" fill="#FFB8B8"/>
<path d="M392.874 234.111C392.504 234.111 392.137 234.043 391.792 233.91L368.308 224.877C367.672 224.634 367.137 224.184 366.79 223.599C366.443 223.014 366.303 222.328 366.395 221.654L367.338 214.58C366.779 212.073 366.83 209.468 367.488 206.984C368.146 204.5 369.391 202.211 371.119 200.31L371.691 199.681L378.639 187.011C379.11 186.152 379.746 185.396 380.51 184.784C381.275 184.173 382.153 183.719 383.094 183.449C384.035 183.178 385.02 183.097 385.992 183.209C386.965 183.321 387.905 183.625 388.76 184.103L401.029 190.959C402.644 191.86 403.864 193.333 404.447 195.088C406.099 200.056 405.976 205.442 404.101 210.33L395.7 232.172C395.478 232.742 395.09 233.231 394.586 233.577C394.082 233.923 393.485 234.109 392.874 234.111Z" fill="#EA6535"/>
<path d="M331.328 355.671L331.296 355.665C330.896 355.588 330.515 355.43 330.177 355.202C329.838 354.974 329.55 354.68 329.328 354.338C329.107 353.995 328.957 353.612 328.887 353.21C328.818 352.808 328.83 352.396 328.924 351.999L346.92 273.333C349.866 260.863 353.936 248.685 359.08 236.949L366.737 219.492L395.305 232.535L399.384 239.995C402.565 248.304 404.2 257.124 404.21 266.021L433.239 351.095C433.38 351.51 433.43 351.951 433.384 352.388C433.338 352.824 433.198 353.246 432.973 353.622C432.748 353.999 432.443 354.322 432.081 354.57C431.718 354.817 431.306 354.983 430.873 355.055L414.982 354.875C414.832 354.902 414.68 354.915 414.528 354.914C413.926 354.914 413.337 354.734 412.838 354.396C412.34 354.057 411.955 353.577 411.732 353.017L378.549 267.004C378.502 266.889 378.42 266.792 378.316 266.725C378.213 266.658 378.091 266.625 377.967 266.629C377.846 266.631 377.729 266.67 377.631 266.741C377.533 266.812 377.46 266.912 377.421 267.026L345.935 353.468C345.694 354.14 345.221 354.704 344.602 355.06C343.983 355.416 343.257 355.54 342.555 355.41L331.328 355.671Z" fill="#2F2E41"/>
<path d="M353.053 258.938C353.891 258.64 354.653 258.162 355.287 257.538C355.92 256.913 356.408 256.157 356.718 255.324C357.027 254.49 357.15 253.598 357.077 252.712C357.005 251.826 356.739 250.966 356.299 250.193L370.529 233.92L359.398 232.402L347.592 248.088C346.343 248.915 345.441 250.17 345.056 251.617C344.671 253.064 344.83 254.602 345.503 255.939C346.176 257.277 347.317 258.321 348.708 258.873C350.1 259.426 351.646 259.449 353.053 258.938Z" fill="#FFB8B8"/>
<path d="M359.76 247.471C359.265 247.471 358.777 247.349 358.34 247.116L353.332 244.446C352.965 244.25 352.642 243.98 352.383 243.653C352.125 243.327 351.937 242.95 351.831 242.547C351.725 242.145 351.703 241.724 351.767 241.313C351.831 240.901 351.979 240.507 352.202 240.156L370.697 211.012L373.904 189.018C374.07 187.881 374.465 186.79 375.065 185.811C375.665 184.831 376.457 183.983 377.394 183.319C378.331 182.654 379.393 182.187 380.516 181.945C381.639 181.702 382.8 181.691 383.927 181.91C385.055 182.13 386.126 182.576 387.076 183.221C388.027 183.867 388.836 184.698 389.455 185.666C390.075 186.633 390.492 187.716 390.68 188.849C390.869 189.983 390.826 191.142 390.553 192.258L383.932 219.366L362.116 246.349C361.832 246.701 361.473 246.984 361.065 247.178C360.658 247.372 360.212 247.472 359.76 247.471Z" fill="#EA6535"/>
<path d="M387.106 152.784C388.825 147.149 398.754 144.634 407.008 146.973C415.261 149.311 421.19 155.442 422.57 161.436C425.626 174.71 409.685 185.483 412.573 198.758C414.485 207.541 425.541 215.845 437.993 217.851C424.27 220.722 407.52 218.198 394.795 211.342C386.874 207.075 380.229 200.635 380.33 194.14C380.391 190.208 382.892 186.73 385.952 183.726C389.011 180.721 392.673 178.051 395.481 174.915C398.288 171.779 400.233 168.024 399.414 164.043C398.595 160.062 394.432 155.91 388.831 154.752L387.106 152.784Z" fill="#2F2E41"/>
<path d="M469.855 370.999H239.373C239.213 370.999 239.059 370.935 238.945 370.822C238.832 370.708 238.768 370.554 238.768 370.394C238.768 370.234 238.832 370.08 238.945 369.966C239.059 369.853 239.213 369.789 239.373 369.789H469.855C470.015 369.789 470.169 369.853 470.282 369.966C470.396 370.08 470.46 370.234 470.46 370.394C470.46 370.554 470.396 370.708 470.282 370.822C470.169 370.935 470.015 370.999 469.855 370.999Z" fill="#CCCCCC"/>
</g>
<defs>
<clipPath id="clip0_1_32621">
<rect width="470.459" height="371" fill="white"/>
</clipPath>
</defs>
</svg>
