<svg width="153" height="38" viewBox="0 0 153 38" fill="none" xmlns="http://www.w3.org/2000/svg">
<path d="M8.98714 38C5.79545 38 2.51976 36.8966 0 34.6049L2.77173 31.2946C4.66155 32.8649 6.67736 33.8834 9.07113 33.8834C10.961 33.8834 12.1368 33.1195 12.1368 31.8463V31.8039C12.1368 30.6156 11.4229 30.0214 7.85325 29.0878C3.61165 27.9419 0.83992 26.7536 0.83992 22.5097V22.4673C0.83992 18.5629 3.94762 16.0165 8.27321 16.0165C11.3389 16.0165 13.9847 16.9926 16.1265 18.7326L13.6907 22.2975C11.8009 20.9819 9.95305 20.1756 8.18922 20.1756C6.42538 20.1756 5.45948 20.9819 5.45948 22.0429V22.0853C5.45948 23.4858 6.38339 23.9526 10.037 24.8863C14.3206 26.0322 16.7564 27.56 16.7564 31.2946V31.3371C16.7564 35.6234 13.5647 38 8.98714 38Z" fill="white"/>
<path d="M29.7493 38C24.1277 38 20.6714 34.7834 20.6714 28.5196V16.3306H25.2936V28.3927C25.2936 31.8631 27.0009 33.683 29.8326 33.683C32.6642 33.683 34.3716 31.9478 34.3716 28.5619V16.3306H38.9938V28.3503C38.9522 34.8258 35.371 38 29.7493 38Z" fill="white"/>
<path d="M52.0336 37.6859H43.8485V16.3306H52.0753C58.6735 16.3306 63.2671 20.9491 63.2671 26.9659V27.0083C63.2254 33.0251 58.6735 37.6859 52.0336 37.6859ZM52.0336 20.5678H48.4422V33.4488H52.0336C55.8338 33.4488 58.3812 30.8641 58.3812 27.093V27.0506C58.3812 23.2372 55.8338 20.5678 52.0336 20.5678Z" fill="white"/>
<path d="M67.4954 16.3306H72.2012V33.4064H82.8423V37.6859H67.4954V16.3306Z" fill="white"/>
<path d="M120.346 37.6859H110.248V16.3306H120.094C124.428 16.3306 127.078 18.4915 127.078 21.8389V21.8813C127.078 24.2965 125.816 25.6524 124.301 26.4998C126.742 27.432 128.256 28.8726 128.256 31.7539V31.7963C128.299 35.7368 125.143 37.6859 120.346 37.6859ZM119.42 20.4406H114.834V24.9744H119.126C121.188 24.9744 122.492 24.2965 122.492 22.7287V22.6863C122.45 21.2457 121.356 20.4406 119.42 20.4406ZM120.178 28.8726H114.792V33.5759H120.346C122.408 33.5759 123.628 32.8556 123.628 31.2454V31.2031C123.628 29.7624 122.576 28.8726 120.178 28.8726Z" fill="white"/>
<path d="M139.615 38C136.416 38 133.174 36.8541 130.606 34.5624L133.385 31.2522C135.279 32.8224 137.3 33.841 139.7 33.841C141.594 33.841 142.773 33.0771 142.773 31.8039V31.7614C142.773 30.5731 142.057 29.979 138.479 29.0453C134.184 27.9419 131.448 26.7536 131.448 22.5097V22.4673C131.448 18.6053 134.521 16.0165 138.858 16.0165C141.931 16.0165 144.583 16.9926 146.73 18.7326L144.289 22.2975C142.394 20.9819 140.542 20.1756 138.773 20.1756C137.005 20.1756 136.037 20.9819 136.037 22.0429V22.0853C136.037 23.4858 136.963 23.9526 140.626 24.8863C144.92 26.0322 147.362 27.56 147.362 31.2946V31.3371C147.404 35.6234 144.204 38 139.615 38Z" fill="white"/>
<path d="M146.501 3.92562C147.669 3.92562 148.615 3.04684 148.615 1.96281C148.615 0.87878 147.669 0 146.501 0C145.333 0 144.387 0.87878 144.387 1.96281C144.387 3.04684 145.333 3.92562 146.501 3.92562Z" fill="white"/>
<path d="M150.416 10.6777C151.843 10.6777 153 9.5177 153 8.08678C153 6.65586 151.843 5.49587 150.416 5.49587C148.989 5.49587 147.832 6.65586 147.832 8.08678C147.832 9.5177 148.989 10.6777 150.416 10.6777Z" fill="white"/>
<path d="M145.092 14.6033C145.913 14.6033 146.579 13.9354 146.579 13.1116C146.579 12.2877 145.913 11.6198 145.092 11.6198C144.27 11.6198 143.604 12.2877 143.604 13.1116C143.604 13.9354 144.27 14.6033 145.092 14.6033Z" fill="white"/>
<path d="M97.8627 16.1736H93.5472L84.4084 37.8004H87.8355H89.1894H91.7702C91.6856 37.8004 91.6433 37.7578 91.5587 37.7578C90.5432 37.5875 90.0779 36.7787 90.4163 35.7995C90.5009 35.5866 90.6279 35.3312 90.7548 35.1183C91.8971 33.2451 92.9972 31.3294 94.1395 29.4562C94.1818 29.371 94.2241 29.2008 94.2241 29.1156C94.2241 28.4344 94.2241 27.7533 94.2241 27.1147C94.2241 27.0295 94.2241 26.987 94.2241 26.9018C93.9703 26.8593 93.6741 26.9444 93.5472 26.6464C93.4626 26.4335 93.5895 26.3058 93.7587 26.1781C95.028 26.1781 96.3396 26.1781 97.6088 26.1781C97.7358 26.3058 97.905 26.4335 97.8204 26.6464C97.6935 26.987 97.3973 26.9018 97.1434 26.9444C97.1434 27.7533 97.1434 28.5196 97.1434 29.3285C97.1434 29.4136 97.1857 29.4988 97.2281 29.5413C98.3704 31.4571 99.5127 33.3303 100.613 35.2461C100.74 35.5015 100.867 35.7143 100.951 35.9698C101.205 36.7787 100.909 37.4598 100.147 37.7153C99.9781 37.7578 99.7666 37.8004 99.5974 37.843H102.051H102.559H106.959L97.8627 16.1736Z" fill="white"/>
</svg>
