<svg width="461" height="314" viewBox="0 0 461 314" fill="none" xmlns="http://www.w3.org/2000/svg">
<path d="M453.047 0H7.85013C5.76699 0.00393787 3.77051 0.834146 2.29879 2.30843C0.827064 3.78272 0.00031131 5.78065 0 7.8638V305.816C0.00298902 307.897 0.831027 309.892 2.30256 311.363C3.7741 312.835 5.76907 313.663 7.85013 313.666H453.047C455.128 313.663 457.123 312.835 458.595 311.363C460.066 309.892 460.894 307.897 460.897 305.816V7.8644C460.897 5.78182 460.071 3.78433 458.6 2.31011C457.129 0.835893 455.133 0.00531438 453.051 0.000589842L453.047 0Z" fill="white"/>
<path d="M344.539 177.038C346.189 177.916 348.238 177.289 349.116 175.639C349.993 173.989 349.367 171.94 347.717 171.063C346.067 170.185 344.018 170.811 343.14 172.461C342.262 174.111 342.889 176.16 344.539 177.038Z" fill="#FF6584"/>
<path d="M342.077 214.83C343.728 215.707 345.777 215.081 346.654 213.431C347.532 211.781 346.906 209.732 345.256 208.854C343.605 207.977 341.556 208.603 340.679 210.253C339.801 211.903 340.427 213.952 342.077 214.83Z" fill="#667085"/>
<path d="M331.91 125.836C334.934 127.698 337.474 130.249 339.321 133.282C341.169 136.314 342.271 139.742 342.538 143.283C342.609 144.283 342.783 145.434 341.966 146.186C341.664 146.48 341.271 146.663 340.852 146.705C340.432 146.747 340.011 146.646 339.657 146.418C339.246 146.073 338.959 145.602 338.843 145.079C338.726 144.555 338.785 144.007 339.012 143.521C339.238 143.034 339.618 142.636 340.094 142.387C340.57 142.139 341.114 142.054 341.643 142.147C344.305 142.375 345.732 144.97 346.894 147.052C349.538 151.795 352.716 156.504 357.437 159.394C361.806 162.07 367.589 162.875 372.183 160.295C372.986 159.846 372.233 158.63 371.433 159.08C366.876 161.64 361.1 160.355 357.041 157.426C354.651 155.627 352.586 153.431 350.937 150.935C350.066 149.671 349.267 148.358 348.511 147.022C347.826 145.684 347.024 144.41 346.115 143.213C344.544 141.319 341.847 139.967 339.434 141.123C337.181 142.199 336.624 145.689 338.549 147.353C338.979 147.703 339.49 147.941 340.034 148.045C340.579 148.149 341.141 148.116 341.67 147.95C342.198 147.784 342.678 147.489 343.065 147.092C343.452 146.695 343.734 146.208 343.887 145.675C344.224 144.515 343.981 143.075 343.826 141.897C343.366 138.353 342.117 134.957 340.171 131.959C338.225 128.962 335.631 126.439 332.58 124.576C331.791 124.105 331.122 125.367 331.91 125.836Z" fill="#CCCCCC"/>
<path d="M429.222 120.413C426.817 118.933 424.797 116.904 423.328 114.492C421.858 112.08 420.981 109.355 420.768 106.539C420.712 105.743 420.574 104.827 421.223 104.23C421.463 103.996 421.776 103.85 422.109 103.816C422.443 103.783 422.778 103.864 423.06 104.045C423.385 104.32 423.611 104.694 423.703 105.11C423.795 105.526 423.748 105.961 423.568 106.347C423.388 106.733 423.087 107.05 422.709 107.247C422.332 107.445 421.9 107.513 421.48 107.441C419.364 107.259 418.229 105.197 417.304 103.54C415.201 99.7678 412.673 96.0229 408.917 93.7229C405.444 91.5957 400.842 90.9542 397.188 93.006C396.549 93.365 397.148 94.3316 397.785 93.9726C401.408 91.9375 406.003 92.9558 409.231 95.2875C411.132 96.7188 412.774 98.4649 414.086 100.45C414.779 101.456 415.414 102.5 416.015 103.564C416.56 104.628 417.197 105.642 417.921 106.594C419.17 108.101 421.313 109.174 423.233 108.256C423.66 108.023 424.028 107.694 424.305 107.295C424.583 106.895 424.763 106.436 424.831 105.955C424.9 105.473 424.855 104.982 424.699 104.521C424.544 104.06 424.283 103.642 423.937 103.3C423.595 103.021 423.189 102.832 422.756 102.749C422.323 102.666 421.876 102.692 421.455 102.824C421.035 102.957 420.653 103.191 420.346 103.507C420.038 103.823 419.813 104.21 419.692 104.634C419.512 105.629 419.529 106.65 419.74 107.638C420.106 110.458 421.1 113.16 422.649 115.544C424.197 117.928 426.261 119.935 428.688 121.416C429.317 121.791 429.849 120.787 429.222 120.413Z" fill="#CCCCCC"/>
<path d="M414.608 153.402L411.62 151.813L406.399 161.63L409.387 163.219L414.608 153.402Z" fill="#CCCCCC"/>
<path d="M369.929 120.857L373.112 119.884L369.913 109.427L366.731 110.4L369.929 120.857Z" fill="#B3B3B3"/>
<path d="M312.987 225.912L313.96 229.095L324.417 225.897L323.444 222.714L312.987 225.912Z" fill="#FF6584"/>
<path d="M229.649 227.115C260.182 227.115 284.934 202.364 284.934 171.831C284.934 141.298 260.182 116.546 229.649 116.546C199.117 116.546 174.365 141.298 174.365 171.831C174.365 202.364 199.117 227.115 229.649 227.115Z" fill="url(#paint0_linear_2001_5)"/>
<path d="M224.168 192.92C222.924 192.922 221.714 192.52 220.719 191.774L220.659 191.727L207.667 181.789C206.464 180.853 205.68 179.479 205.486 177.967C205.292 176.456 205.703 174.928 206.631 173.719C207.558 172.509 208.926 171.716 210.436 171.51C211.946 171.305 213.476 171.706 214.692 172.624L223.108 179.078L242.994 153.134C243.455 152.532 244.03 152.027 244.686 151.647C245.342 151.268 246.067 151.021 246.818 150.922C247.57 150.822 248.334 150.872 249.066 151.068C249.798 151.264 250.485 151.602 251.086 152.063L250.963 152.235L251.09 152.063C252.304 152.996 253.098 154.371 253.299 155.889C253.5 157.406 253.09 158.941 252.16 160.157L228.769 190.659C228.228 191.362 227.532 191.931 226.736 192.321C225.939 192.712 225.064 192.913 224.177 192.911L224.168 192.92Z" fill="white"/>
<path d="M192.714 130.628C192.181 130.626 191.67 130.413 191.294 130.037C190.917 129.66 190.705 129.149 190.704 128.616C190.701 128.458 190.719 128.3 190.757 128.147L201.164 82.3001C201.243 81.9547 201.411 81.6361 201.652 81.3762C201.892 81.1163 202.197 80.9242 202.536 80.8191C202.874 80.7141 203.234 80.6998 203.58 80.7777C203.925 80.8556 204.244 81.0229 204.505 81.2629L239.012 113.215C239.272 113.456 239.464 113.761 239.569 114.099C239.674 114.437 239.688 114.797 239.61 115.142C239.533 115.488 239.366 115.807 239.126 116.067C238.886 116.328 238.582 116.521 238.244 116.627L193.32 130.537C193.124 130.597 192.919 130.628 192.714 130.628Z" fill="#FFE27D"/>
<path d="M220.937 97.1122L199.262 92.7988L199.603 91.2936L218.768 95.1033L220.937 97.1122Z" fill="#EA6535"/>
<path d="M238.005 112.922L196.563 104.676L196.904 103.163L235.833 110.905L238.005 112.922Z" fill="#EA6535"/>
<path d="M223.178 120.804L220.068 121.766L193.87 116.553L194.211 115.04L223.178 120.804Z" fill="#EA6535"/>
<path d="M112.625 197.684C115.081 197.072 116.575 194.585 115.963 192.129C115.35 189.673 112.863 188.179 110.407 188.791C107.952 189.403 106.457 191.89 107.069 194.346C107.682 196.802 110.169 198.296 112.625 197.684Z" fill="#667085"/>
<path d="M71.8764 89.0871C73.6304 88.6498 74.6979 86.8733 74.2605 85.1192C73.8232 83.3651 72.0467 82.2977 70.2926 82.735C68.5385 83.1724 67.4711 84.9489 67.9085 86.7029C68.3458 88.457 70.1223 89.5244 71.8764 89.0871Z" fill="#FF6584"/>
<path d="M90.7259 174.806C92.48 174.369 93.5474 172.592 93.1101 170.838C92.6727 169.084 90.8962 168.017 89.1422 168.454C87.3881 168.891 86.3207 170.668 86.758 172.422C87.1953 174.176 88.9718 175.243 90.7259 174.806Z" fill="#667085"/>
<path d="M107.525 225.945C109.279 225.507 110.347 223.731 109.909 221.977C109.472 220.223 107.695 219.155 105.941 219.592C104.187 220.03 103.12 221.806 103.557 223.56C103.994 225.314 105.771 226.382 107.525 225.945Z" fill="#E6E6E6"/>
<path d="M51.3827 119.843C53.1368 119.406 54.2042 117.629 53.7669 115.875C53.3295 114.121 51.553 113.053 49.799 113.491C48.0449 113.928 46.9775 115.705 47.4148 117.459C47.8521 119.213 49.6286 120.28 51.3827 119.843Z" fill="#CCCCCC"/>
<path d="M138.003 178.434C135.417 177.555 133.076 176.076 131.172 174.117C129.268 172.159 127.855 169.777 127.049 167.167C126.825 166.426 126.498 165.594 126.982 164.891C127.158 164.619 127.421 164.415 127.729 164.311C128.036 164.208 128.369 164.212 128.674 164.323C129.04 164.512 129.334 164.816 129.51 165.189C129.686 165.561 129.734 165.982 129.648 166.384C129.561 166.787 129.345 167.15 129.032 167.418C128.719 167.686 128.326 167.843 127.915 167.866C125.879 168.149 124.364 166.447 123.138 165.084C120.342 161.981 117.155 158.99 113.119 157.628C109.383 156.368 104.907 156.753 101.903 159.473C101.377 159.949 102.15 160.73 102.675 160.256C105.654 157.558 110.209 157.533 113.752 159.037C115.853 159.978 117.776 161.271 119.44 162.861C120.31 163.661 121.133 164.509 121.929 165.382C122.672 166.268 123.491 167.087 124.378 167.829C125.88 168.981 128.132 169.534 129.746 168.255C130.1 167.944 130.375 167.555 130.551 167.119C130.726 166.682 130.798 166.211 130.759 165.742C130.72 165.273 130.572 164.82 130.326 164.419C130.081 164.017 129.745 163.679 129.345 163.431C128.963 163.241 128.539 163.15 128.113 163.165C127.686 163.18 127.27 163.3 126.902 163.515C126.533 163.73 126.224 164.033 126.001 164.398C125.779 164.762 125.65 165.175 125.627 165.601C125.671 166.578 125.906 167.537 126.318 168.424C127.269 171.005 128.788 173.339 130.761 175.255C132.734 177.171 135.112 178.62 137.72 179.495C138.393 179.714 138.679 178.652 138.007 178.434L138.003 178.434Z" fill="#CCCCCC"/>
<path d="M58.9152 156.174L61.673 157.831L67.1175 148.77L64.3596 147.113L58.9152 156.174Z" fill="#B3B3B3"/>
<path d="M58.5058 232.597C60.9617 231.985 62.4561 229.497 61.8438 227.042C61.2315 224.586 58.7443 223.091 56.2885 223.704C53.8326 224.316 52.3382 226.803 52.9505 229.259C53.5628 231.715 56.05 233.209 58.5058 232.597Z" fill="#667085"/>
<defs>
<linearGradient id="paint0_linear_2001_5" x1="174.365" y1="171.831" x2="284.934" y2="171.831" gradientUnits="userSpaceOnUse">
<stop stop-color="#EA6535"/>
<stop offset="1" stop-color="#FF8400"/>
</linearGradient>
</defs>
</svg>
